<?xml version="1.0" encoding="UTF-8"?>
<svg version="1.1" xmlns="http://www.w3.org/2000/svg" width="4321" height="4320">
<path d="M0 0 C1425.93 0 2851.86 0 4321 0 C4321 1425.6 4321 2851.2 4321 4320 C2895.07 4320 1469.14 4320 0 4320 C0 2894.4 0 1468.8 0 0 Z " fill="#2B4C77" transform="translate(0,0)"/>
<path d="M0 0 C0.18132636 27.64574857 0.3458265 55.2915871 0.5 82.9375 C0.50594854 84.00122062 0.51189708 85.06494124 0.51802588 86.16089582 C0.97452682 168.00621957 1.08863411 249.84957614 1.06315851 331.6958831 C1.06249783 333.81948411 1.06185516 335.94308513 1.06121445 338.06668615 C1.05023861 374.04446355 1.030103 410.02223333 1 446 C-1.53138682 447.26771204 -4.0629941 448.53498053 -6.59472656 449.80200195 C-7.65791611 450.33452953 -7.65791611 450.33452953 -8.74258423 450.87781525 C-15.05256697 454.03495966 -21.39127574 457.12966713 -27.75 460.1875 C-28.89339844 460.73792969 -30.03679688 461.28835938 -31.21484375 461.85546875 C-40.60981005 466.36341332 -50.05610973 470.75542806 -59.51660156 475.1237793 C-67.54862116 478.84017847 -75.53482838 482.64259442 -83.5 486.5 C-93.78219546 491.47950327 -104.11984576 496.32535796 -114.49316406 501.11181641 C-122.78772472 504.94819572 -131.02735649 508.88751497 -139.25 512.875 C-147.4757578 516.86386808 -155.7282096 520.69496729 -164.13476562 524.28442383 C-167.94372492 525.94664205 -171.64462203 527.78777755 -175.34765625 529.671875 C-184.08003674 534.07407599 -192.905122 538.2671455 -201.75 542.4375 C-203.41413734 543.22379996 -205.07819817 544.01026186 -206.7421875 544.796875 C-211.00240886 546.81027776 -215.26360855 548.82159999 -219.52514648 550.83221436 C-223.39739829 552.65937707 -227.26900075 554.48791428 -231.140625 556.31640625 C-235.57743221 558.4117291 -240.01433247 560.50685379 -244.45166016 562.60107422 C-254.54517767 567.36522661 -264.63312996 572.14102914 -274.71875 576.921875 C-288.16493072 583.29571391 -301.61969525 589.65073079 -315.08654785 595.98077393 C-326.35879673 601.27984344 -337.61975786 606.60240839 -348.875 611.9375 C-361.28760538 617.82112726 -373.70320429 623.69829785 -386.125 629.5625 C-386.86510315 629.91192657 -387.6052063 630.26135315 -388.36773682 630.62136841 C-395.79066816 634.12591747 -403.21411182 637.62937936 -410.63815308 641.13157654 C-414.34226483 642.87903948 -418.04615857 644.62696418 -421.75 646.375 C-422.48357727 646.72116364 -423.21715454 647.06732727 -423.97296143 647.42398071 C-432.71205992 651.54845706 -441.4458064 655.68395918 -450.171875 659.8359375 C-451.02443375 660.24156921 -451.87699249 660.64720093 -452.75538635 661.06512451 C-454.47813033 661.88480368 -456.20087304 662.70448548 -457.9236145 663.52416992 C-458.77382172 663.92869385 -459.62402893 664.33321777 -460.5 664.75 C-461.34674286 665.1529126 -462.19348572 665.5558252 -463.06588745 665.97094727 C-474.74098614 671.52453194 -486.4438213 677.01085357 -498.18164062 682.43066406 C-507.1162324 686.56548548 -515.98472736 690.82950201 -524.84545898 695.11987305 C-534.04335648 699.56363534 -543.29426521 703.88672173 -552.57226562 708.16015625 C-563.09552069 713.01407988 -573.53313081 718.01577658 -584 723 C-584.33 782.07 -584.66 841.14 -585 902 C-576.09 897.71 -567.18 893.42 -558 889 C-545.1875 883.125 -545.1875 883.125 -539.21484375 880.40625 C-535.18080493 878.55835843 -531.20354619 876.63879132 -527.25 874.625 C-519.92051 870.89362328 -512.45038987 867.47720432 -504.98352051 864.03082275 C-496.11528838 859.93523819 -487.29123449 855.75919153 -478.5 851.5 C-469.41428331 847.09954997 -460.29136927 842.79234414 -451.125 838.5625 C-441.53593917 834.13677962 -431.99966925 829.61349707 -422.5 825 C-411.84543092 819.82562792 -401.13390037 814.78713782 -390.37890625 809.82421875 C-382.38122849 806.12607819 -374.43015916 802.34061261 -366.5 798.5 C-356.20895704 793.51618849 -345.8615615 788.66804615 -335.48046875 783.875 C-326.31997628 779.63610693 -317.22434336 775.27232586 -308.14013672 770.87280273 C-299.01727737 766.46485409 -289.83399303 762.19659057 -280.63427734 757.9519043 C-271.46781388 753.71048587 -262.37212542 749.33495823 -253.28860474 744.91992188 C-244.35829166 740.58231131 -235.37232117 736.39866473 -226.31738281 732.32861328 C-221.61652461 730.20963263 -216.97101925 728.02832968 -212.375 725.6875 C-205.00488468 721.9365593 -197.49619695 718.49779863 -189.98809814 715.03311157 C-181.03332759 710.89843569 -172.12587947 706.67728781 -163.25 702.375 C-153.60161951 697.69895473 -143.89519913 693.17414922 -134.13476562 688.73730469 C-129.12357548 686.45293942 -124.1572801 684.12458836 -119.25 681.625 C-111.96503252 677.91644944 -104.54031587 674.52235946 -97.11828613 671.09820557 C-87.8653696 666.82609076 -78.66691408 662.4534568 -69.5 658 C-58.81674623 652.81136063 -48.08061378 647.75218721 -37.29321289 642.7824707 C-31.43483487 640.07825108 -25.596614 637.33938929 -19.79296875 634.51953125 C-18.64022461 633.96023926 -17.48748047 633.40094727 -16.29980469 632.82470703 C-14.10648564 631.75671418 -11.91560176 630.68370137 -9.72753906 629.60498047 C-8.75397461 629.1307666 -7.78041016 628.65655273 -6.77734375 628.16796875 C-5.92390381 627.74797607 -5.07046387 627.3279834 -4.19116211 626.89526367 C-2 626 -2 626 1 626 C1 770.21 1 914.42 1 1063 C-8.89535111 1067.94767556 -18.78714002 1072.88056078 -28.75 1077.6875 C-29.36117676 1077.98269531 -29.97235352 1078.27789063 -30.60205078 1078.58203125 C-40.84643535 1083.52668927 -51.14828016 1088.33918484 -61.47753906 1093.10424805 C-69.86195127 1096.98159895 -78.19100751 1100.96458522 -86.5 1105 C-97.10743953 1110.1516978 -107.77225902 1115.16599154 -118.48046875 1120.10546875 C-126.86379697 1123.9826407 -135.19195836 1127.96504701 -143.5 1132 C-152.95777323 1136.59334124 -162.45226564 1141.09567071 -172 1145.5 C-181.42039345 1149.84681048 -190.79087281 1154.28340585 -200.125 1158.8125 C-210.57221498 1163.88161004 -221.05152278 1168.87691985 -231.5625 1173.8125 C-232.62401276 1174.31098953 -232.62401276 1174.31098953 -233.70697021 1174.81954956 C-236.60307674 1176.17937739 -239.49929358 1177.5389698 -242.39569092 1178.8981781 C-250.51966526 1182.71134895 -258.63535914 1186.54201571 -266.75 1190.375 C-267.86427872 1190.90126984 -267.86427872 1190.90126984 -269.00106812 1191.43817139 C-287.00799135 1199.94340668 -305.00408031 1208.47151488 -323 1217 C-333.30649096 1221.88437136 -343.61326959 1226.76813138 -353.92172241 1231.64836121 C-357.88542303 1233.52491455 -361.8488041 1235.40213699 -365.81152344 1237.28076172 C-370.54014418 1239.5223508 -375.26961973 1241.76212639 -380 1244 C-380.75504822 1244.35723145 -381.51009644 1244.71446289 -382.2880249 1245.08251953 C-392.01894305 1249.68334674 -401.76577382 1254.24238308 -411.60546875 1258.60742188 C-416.61961357 1260.84878747 -421.54035472 1263.2526865 -426.4453125 1265.72265625 C-435.43795351 1270.25022844 -444.52413647 1274.57012273 -453.625 1278.875 C-455.37588163 1279.70469087 -457.12669397 1280.53452797 -458.87744141 1281.36450195 C-462.47839569 1283.07125478 -466.07981929 1284.77701132 -469.68164062 1286.48193359 C-474.74205168 1288.87742644 -479.80087725 1291.27625139 -484.859375 1293.67578125 C-501.30798906 1301.47671682 -517.76536987 1309.25873198 -534.24365234 1316.99682617 C-541.85588088 1320.57251574 -549.45953286 1324.16551528 -557.0546875 1327.77734375 C-559.55634749 1328.96522827 -562.05814924 1330.15281371 -564.55999756 1331.34030151 C-566.17772882 1332.10918619 -567.79480287 1332.87945525 -569.41119385 1333.65115356 C-571.6475281 1334.71875837 -573.88601404 1335.78172036 -576.125 1336.84375 C-577.1286409 1337.32526772 -577.1286409 1337.32526772 -578.15255737 1337.81651306 C-582.77243805 1340 -582.77243805 1340 -585 1340 C-585 1669.34 -585 1998.68 -585 2338 C-920.85534125 2338 -920.85534125 2338 -950.5 2309.9375 C-967.38907782 2292.61843151 -976.17188003 2270.11526746 -976.12880117 2246.03934443 C-976.13057618 2244.81702694 -976.13235119 2243.59470944 -976.13417998 2242.33535203 C-976.13810738 2238.92936916 -976.13754464 2235.5234398 -976.13512228 2232.11745901 C-976.13358164 2228.4031668 -976.13783565 2224.68888048 -976.14134905 2220.97459024 C-976.14672737 2214.43529449 -976.14836551 2207.89600592 -976.1475983 2201.35670812 C-976.14646403 2191.56697231 -976.15104032 2181.77724489 -976.15672914 2171.98751097 C-976.16624696 2155.30446669 -976.17094928 2138.6214241 -976.17303848 2121.93837738 C-976.17516582 2105.02515665 -976.1794229 2088.11193852 -976.1862812 2071.19871902 C-976.18671182 2070.13153821 -976.18714243 2069.06435739 -976.1875861 2067.96483776 C-976.18934441 2063.61855063 -976.19111406 2059.2722635 -976.19289912 2054.92597638 C-976.21450665 2002.21306929 -976.22537894 1949.50016168 -976.23437535 1896.78725117 C-976.23730867 1879.69564838 -976.24067847 1862.60404571 -976.24434257 1845.51244307 C-976.24460086 1844.30693266 -976.24485915 1843.10142225 -976.24512527 1841.85938123 C-976.24617147 1836.98245156 -976.2472199 1832.10552189 -976.24827109 1827.22859223 C-976.26623615 1743.80780133 -976.28161587 1660.38701022 -976.28903012 1576.96621766 C-976.28961409 1570.41264934 -976.29021136 1563.85908101 -976.29080774 1557.30551269 C-976.29092586 1556.00548147 -976.29104398 1554.70545026 -976.29116567 1553.36602416 C-976.29236308 1540.19469043 -976.29357183 1527.02335669 -976.29479821 1513.85202296 C-976.29504344 1511.21111428 -976.2952873 1508.57020559 -976.29552978 1505.9292969 C-976.30332032 1421.1041866 -976.32570529 1336.27909012 -976.3582062 1251.45398586 C-976.38154867 1190.51125243 -976.40310206 1129.56852174 -976.41021252 1068.62578392 C-976.41035954 1067.37272744 -976.41050656 1066.11967096 -976.41065803 1064.82864307 C-976.41384271 1037.32213235 -976.41589371 1009.81562166 -976.41688558 982.30911078 C-976.41730033 971.24183409 -976.41785523 960.17455741 -976.41844749 949.10728073 C-976.41850816 947.89602411 -976.41856883 946.68476749 -976.41863134 945.43680612 C-976.42064809 906.40475077 -976.43489214 867.37271174 -976.4553925 828.34066208 C-976.47596603 789.02992048 -976.4838714 749.71919776 -976.47431473 710.40845131 C-976.47299626 704.9773981 -976.47181822 699.54634486 -976.47072411 694.1152916 C-976.47050426 693.05064583 -976.47028441 691.98600006 -976.4700579 690.88909229 C-976.46694244 674.02491731 -976.47727449 657.16077839 -976.49319966 640.29661177 C-976.5085771 623.71756234 -976.50970999 607.13856285 -976.49565142 590.5595117 C-976.48783614 580.8376482 -976.49096883 571.11593718 -976.51028858 561.39408888 C-976.52202919 554.93592026 -976.51923608 548.47786297 -976.50467394 542.01970037 C-976.49682666 538.35965333 -976.49508811 534.69990448 -976.51129298 531.03987815 C-976.58617125 512.9652214 -976.06415853 496.8805365 -967.9375 480.375 C-967.55609863 479.58577148 -967.17469727 478.79654297 -966.78173828 477.98339844 C-962.8381076 470.15317633 -957.79519963 463.5395372 -952 457 C-951.38382813 456.29617188 -950.76765625 455.59234375 -950.1328125 454.8671875 C-942.51663144 446.74083164 -932.84068582 441.00957193 -923 436 C-921.92234375 435.44183594 -920.8446875 434.88367187 -919.734375 434.30859375 C-910.01895643 429.33103966 -900.10831777 424.77866908 -890.19702148 420.20751953 C-881.45894125 416.17130571 -872.78141453 412.02067893 -864.125 407.8125 C-854.58374987 403.17448936 -844.99350565 398.67787732 -835.31738281 394.32861328 C-830.61652461 392.20963263 -825.97101925 390.02832968 -821.375 387.6875 C-814.64264201 384.26128214 -807.79643664 381.10161782 -800.9375 377.9375 C-791.0766595 373.38831572 -781.26787412 368.74545643 -771.5 364 C-760.84563243 358.8252209 -750.133891 353.7871335 -739.37890625 348.82421875 C-731.38122849 345.12607819 -723.43015916 341.34061261 -715.5 337.5 C-705.20895704 332.51618849 -694.8615615 327.66804615 -684.48046875 322.875 C-676.44952802 319.15879161 -668.46421976 315.35694461 -660.5 311.5 C-650.20894759 306.51620745 -639.86156192 301.66804635 -629.48046875 296.875 C-620.31997628 292.63610693 -611.22434336 288.27232586 -602.14013672 283.87280273 C-594.17125599 280.02242911 -586.16092261 276.27069669 -578.125 272.5625 C-568.53593917 268.13677962 -558.99966925 263.61349707 -549.5 259 C-538.84543092 253.82562792 -528.13390037 248.78713782 -517.37890625 243.82421875 C-509.38122849 240.12607819 -501.43015916 236.34061261 -493.5 232.5 C-483.20895704 227.51618849 -472.8615615 222.66804615 -462.48046875 217.875 C-453.31997628 213.63610693 -444.22434336 209.27232586 -435.14013672 204.87280273 C-427.17125599 201.02242911 -419.16092261 197.27069669 -411.125 193.5625 C-401.53593917 189.13677962 -391.99966925 184.61349707 -382.5 180 C-371.84543092 174.82562792 -361.13390037 169.78713782 -350.37890625 164.82421875 C-342.38122849 161.12607819 -334.43015916 157.34061261 -326.5 153.5 C-316.20895704 148.51618849 -305.8615615 143.66804615 -295.48046875 138.875 C-286.31997628 134.63610693 -277.22434336 130.27232586 -268.14013672 125.87280273 C-260.17125599 122.02242911 -252.16092261 118.27069669 -244.125 114.5625 C-234.53593917 110.13677962 -224.99966925 105.61349707 -215.5 101 C-204.84543092 95.82562792 -194.13390037 90.78713782 -183.37890625 85.82421875 C-175.38122849 82.12607819 -167.43015916 78.34061261 -159.5 74.5 C-149.20895704 69.51618849 -138.8615615 64.66804615 -128.48046875 59.875 C-120.44952802 56.15879161 -112.46421976 52.35694461 -104.5 48.5 C-94.21189975 43.51763713 -83.86775783 38.67024871 -73.48925781 33.87939453 C-64.24437206 29.60212153 -55.06726801 25.19395166 -45.90063477 20.75195312 C-37.33290299 16.61211186 -28.70831214 12.60940226 -20.03808594 8.68896484 C-14.61628198 6.23122102 -9.28115482 3.66313631 -3.99829102 0.91796875 C-2 0 -2 0 0 0 Z " fill="#94FD94" transform="translate(3470,991)"/>
<path d="M0 0 C0 594.66 0 1189.32 0 1802 C-333.7176259 1802 -333.7176259 1802 -362 1777 C-362.95326172 1776.17242188 -362.95326172 1776.17242188 -363.92578125 1775.328125 C-380.02123904 1760.37969984 -390.16835952 1736.87951559 -391.4563114 1715.16060612 C-391.69627995 1708.56180631 -391.65963535 1701.96547363 -391.62361908 1695.36349964 C-391.62823601 1692.80935815 -391.63504391 1690.25521986 -391.64382517 1687.70108929 C-391.65936092 1682.16132524 -391.65659261 1676.62181264 -391.64145225 1671.08205096 C-391.61888371 1662.78892544 -391.62550136 1654.4959913 -391.63753333 1646.20285282 C-391.65720699 1632.06435097 -391.6533112 1617.92594463 -391.63640213 1603.78744316 C-391.61936665 1589.46824193 -391.61327359 1575.14909766 -391.62041855 1560.82988739 C-391.62086345 1559.92403969 -391.62130835 1559.01819198 -391.62176674 1558.08489434 C-391.62408253 1553.46557355 -391.62656916 1548.84625287 -391.62911103 1544.2269322 C-391.64709925 1510.82416391 -391.64050971 1477.42143621 -391.62034607 1444.01867104 C-391.60040788 1410.93569822 -391.58952714 1377.85274496 -391.59120178 1344.76976585 C-391.59129511 1342.6913257 -391.59138771 1340.61288555 -391.59147959 1338.5344454 C-391.59186481 1330.18191214 -391.59231632 1321.82937889 -391.59285098 1313.47684563 C-391.59432316 1290.12892043 -391.59411645 1266.78099539 -391.592659 1243.43307018 C-391.5925933 1242.36990648 -391.5925276 1241.30674278 -391.59245991 1240.21136199 C-391.59025364 1206.33957336 -391.58078614 1172.46779087 -391.56609344 1138.59600544 C-391.56561732 1137.49756261 -391.56514119 1136.39911978 -391.56465063 1135.2673908 C-391.55688839 1117.429796 -391.54867824 1099.59220141 -391.54044303 1081.75460682 C-391.50780642 1011.00265785 -391.49474657 940.25073552 -391.50097656 869.4987793 C-391.50117051 867.26219491 -391.501364 865.02561053 -391.50155704 862.78902614 C-391.50184641 859.43736286 -391.50213581 856.08569958 -391.50242616 852.73403629 C-391.50348508 840.49007883 -391.5044981 828.24612136 -391.50545502 816.00216389 C-391.50554241 814.90415464 -391.5056298 813.80614539 -391.50571983 812.67486314 C-391.51038773 753.39594103 -391.50061436 694.11702218 -391.48561716 634.83810204 C-391.48509141 632.74822998 -391.48456601 630.65835793 -391.48404097 628.56848587 C-391.48378115 627.535408 -391.48352133 626.50233013 -391.48325363 625.43794686 C-391.48272958 623.35375073 -391.48220596 621.26955459 -391.48168276 619.18535845 C-391.48037808 613.99309865 -391.47906047 608.80083886 -391.47771757 603.60857907 C-391.47187425 580.85026106 -391.46786327 558.09194486 -391.46883965 535.33362603 C-391.46888266 534.3082813 -391.46892567 533.28293658 -391.46896998 532.22652079 C-391.4691955 527.06414227 -391.46944956 521.90176375 -391.46971158 516.73938523 C-391.47157497 479.42783949 -391.46352407 442.11631777 -391.43807012 404.80477992 C-391.43560262 401.12848978 -391.43317925 397.45219962 -391.43078995 393.77590942 C-391.43019867 392.87369083 -391.4296074 391.97147223 -391.42899821 391.04191368 C-391.41990036 376.76051694 -391.4207937 362.47913919 -391.42583061 348.19774118 C-391.43056614 334.15247343 -391.42454886 320.10724414 -391.40711627 306.06198604 C-391.3972126 297.83005296 -391.39542411 289.59821614 -391.40575388 281.36628302 C-391.41250641 275.25042456 -391.40358435 269.13468204 -391.38862656 263.01884024 C-391.38502393 260.5634114 -391.3864151 258.10796873 -391.39346571 255.65254736 C-391.47974105 223.09313194 -391.47974105 223.09313194 -384.8125 208.1875 C-384.51134277 207.48939209 -384.21018555 206.79128418 -383.89990234 206.07202148 C-379.07605582 195.28092567 -372.12333863 186.49848393 -364 178 C-363.08154297 176.96939453 -363.08154297 176.96939453 -362.14453125 175.91796875 C-358.39036804 171.85963027 -354.2906054 168.68034301 -349.64453125 165.70703125 C-349.03223663 165.31513611 -348.41994202 164.92324097 -347.78909302 164.51947021 C-341.2352079 160.40571824 -334.36990187 157.0405038 -327.375 153.75 C-326.02083616 153.10435476 -324.66700178 152.45801812 -323.31347656 151.81103516 C-313.33876603 147.0553113 -303.31465242 142.40370241 -293.28076172 137.77441406 C-285.3147369 134.09501411 -277.39715433 130.32479013 -269.5 126.5 C-259.20896649 121.51616955 -248.86156109 116.66804596 -238.48046875 111.875 C-229.31997628 107.63610693 -220.22434336 103.27232586 -211.14013672 98.87280273 C-203.17125599 95.02242911 -195.16092261 91.27069669 -187.125 87.5625 C-177.53593917 83.13677962 -167.99966925 78.61349707 -158.5 74 C-147.84543092 68.82562792 -137.13390037 63.78713782 -126.37890625 58.82421875 C-118.38122849 55.12607819 -110.43015916 51.34061261 -102.5 47.5 C-92.20895704 42.51618849 -81.8615615 37.66804615 -71.48046875 32.875 C-62.33841587 28.6446396 -53.26073882 24.29036451 -44.19506836 19.89916992 C-32.39370499 14.19655005 -20.50089787 8.6964355 -8.59594727 3.21411133 C-6.97375055 2.45541818 -5.36436891 1.66790806 -3.77709961 0.83862305 C-2 0 -2 0 0 0 Z " fill="#FEFEFE" transform="translate(2337,1527)"/>
<path d="M0 0 C0 509.19 0 1018.38 0 1543 C-331.38649156 1543 -331.38649156 1543 -359 1521 C-360.051875 1520.21625 -361.10375 1519.4325 -362.1875 1518.625 C-379.29189136 1502.6609014 -391.1017231 1479.30471798 -392.09197975 1455.81848705 C-392.12870972 1453.56190887 -392.13548326 1451.30735955 -392.12995183 1449.05049103 C-392.13185108 1448.19079941 -392.13375032 1447.33110778 -392.13570711 1446.44536489 C-392.14084858 1443.56928019 -392.1389195 1440.69324481 -392.13701439 1437.81715679 C-392.13927183 1435.72357 -392.14196365 1433.62998364 -392.14505023 1431.5363979 C-392.15227982 1425.76529649 -392.15327951 1419.99420808 -392.153273 1414.22310275 C-392.15434286 1407.95118961 -392.1611341 1401.67928225 -392.1671797 1395.4073723 C-392.17696339 1384.40872684 -392.18300238 1373.41008514 -392.18649673 1362.41143608 C-392.19025302 1350.60966534 -392.19612924 1338.80789857 -392.20457458 1327.00613022 C-392.20510568 1326.26070407 -392.20563677 1325.51527792 -392.20618396 1324.7472631 C-392.20835071 1321.71123405 -392.21052733 1318.67520502 -392.2127179 1315.63917599 C-392.23921203 1278.84372489 -392.25478319 1242.04827168 -392.26788078 1205.25281372 C-392.27213165 1193.32017475 -392.2766993 1181.38753594 -392.2814641 1169.45489717 C-392.30637265 1106.92958599 -392.32843235 1044.40427436 -392.34065448 981.8789593 C-392.34155185 977.30272924 -392.34246655 972.72649917 -392.34338222 968.15026911 C-392.34365464 966.78861302 -392.34365464 966.78861302 -392.34393256 965.39944873 C-392.34577521 956.20258843 -392.34764108 947.00572815 -392.34953065 937.80886786 C-392.3499087 935.96488292 -392.35028499 934.12089797 -392.35065953 932.27691302 C-392.36268841 873.06050822 -392.39237568 813.8441328 -392.43407464 754.62774184 C-392.46402981 712.07593009 -392.49165541 669.52412437 -392.50135231 626.97230244 C-392.50155287 626.09695849 -392.50175342 625.22161454 -392.50196006 624.31974502 C-392.50631094 605.10241274 -392.5092565 585.8850805 -392.51088657 566.6677478 C-392.5115629 558.93518403 -392.51241842 551.20262028 -392.51332474 543.47005653 C-392.51341883 542.62379033 -392.51351293 541.77752412 -392.51360988 540.90561348 C-392.51672027 513.66109765 -392.53521818 486.41661926 -392.56167471 459.17211691 C-392.58824081 431.72429953 -392.59895744 404.27652389 -392.58793872 376.82869448 C-392.58641728 373.03222352 -392.58507182 369.23575252 -392.58383179 365.43928146 C-392.58358206 364.69509889 -392.58333233 363.95091631 -392.58307503 363.18418274 C-392.5795859 351.42098896 -392.59286512 339.65787686 -392.61320952 327.89470267 C-392.63288586 316.31567944 -392.63418652 304.73680527 -392.61748323 293.15776952 C-392.60907111 286.96881669 -392.6084911 280.7801422 -392.63009469 274.59121516 C-392.6496206 268.95210336 -392.64578694 263.31349095 -392.62394121 257.67439207 C-392.62010225 255.65555975 -392.62449843 253.63668894 -392.63852822 251.61790172 C-392.82118548 223.49495625 -384.6396349 198.36450899 -364.8515625 177.8203125 C-353.58637506 166.49369255 -340.37476985 159.40222634 -325.9375 152.875 C-323.45541389 151.74049428 -320.97565678 150.60094533 -318.49609375 149.4609375 C-317.87024384 149.1737384 -317.24439392 148.88653931 -316.59957886 148.59063721 C-310.19279423 145.64365911 -303.84475582 142.57796884 -297.5 139.5 C-287.21227787 134.51687289 -276.86774243 129.6702416 -266.48925781 124.87939453 C-257.24140077 120.60074683 -248.0612816 116.19128522 -238.8918457 111.74755859 C-230.35913274 107.62434321 -221.76164838 103.65886591 -213.13476562 99.73730469 C-208.12357548 97.45293942 -203.1572801 95.12458836 -198.25 92.625 C-190.92051 88.89362328 -183.45038987 85.47720432 -175.98352051 82.03082275 C-167.11528807 77.93523804 -158.29124256 73.75917542 -149.5 69.5 C-139.21198788 64.51745826 -128.8677544 59.67024713 -118.48925781 54.87939453 C-109.24140077 50.60074683 -100.0612816 46.19128522 -90.8918457 41.74755859 C-82.35913274 37.62434321 -73.76164838 33.65886591 -65.13476562 29.73730469 C-60.12357548 27.45293942 -55.1572801 25.12458836 -50.25 22.625 C-39.80792171 17.30739416 -29.10738857 12.50010423 -18.46435547 7.60107422 C-16.07372037 6.49622679 -13.68754105 5.38452497 -11.30517578 4.26220703 C-10.13325684 3.71290527 -8.96133789 3.16360352 -7.75390625 2.59765625 C-6.69631104 2.09886963 -5.63871582 1.60008301 -4.54907227 1.08618164 C-2 0 -2 0 0 0 Z " fill="#FEFEFE" transform="translate(1790,1786)"/>
<path d="M0 0 C0 423.72 0 847.44 0 1284 C-336.94412331 1284 -336.94412331 1284 -368.03125 1252.97265625 C-385.51202166 1234.18082672 -391.329022 1210.40698336 -391.25447559 1185.53952408 C-391.25686827 1183.87697637 -391.26013527 1182.21442973 -391.26419219 1180.55188525 C-391.27279725 1175.98691689 -391.26899194 1171.42203096 -391.26313647 1166.85706137 C-391.25896212 1161.88923717 -391.26637042 1156.92142789 -391.27228898 1151.95360732 C-391.28105169 1143.24788612 -391.28236283 1134.54218844 -391.27878571 1125.83646393 C-391.27348036 1112.89058245 -391.27957233 1099.94472375 -391.28786864 1086.99884475 C-391.30269718 1063.20532473 -391.30495777 1039.41181355 -391.30254826 1015.61828993 C-391.3022098 1012.24800013 -391.30188771 1008.87771034 -391.30158257 1005.50742054 C-391.30152153 1004.83797784 -391.30146049 1004.16853513 -391.30139759 1003.47880628 C-391.3001252 988.63695324 -391.30272799 973.79510163 -391.30610864 958.95324902 C-391.30687939 955.56337989 -391.30762412 952.17351075 -391.30837366 948.78364162 C-391.30867535 947.42312626 -391.30897723 946.0626109 -391.3092793 944.70209554 C-391.30942898 944.02770738 -391.30957866 943.35331923 -391.30973287 942.65849508 C-391.31003641 941.29438283 -391.31034109 939.93027059 -391.31064692 938.56615835 C-391.31931928 899.86305608 -391.32396434 861.15995508 -391.31969929 822.45685196 C-391.3195822 821.3820064 -391.3195822 821.3820064 -391.31946275 820.2854468 C-391.31858997 812.29516374 -391.3176607 804.30488069 -391.31671212 796.31459764 C-391.31658385 795.23250913 -391.31658385 795.23250913 -391.316453 794.12856026 C-391.31574224 788.13472238 -391.31574224 788.13472238 -391.31541077 785.37646662 C-391.3098753 739.23632144 -391.31741655 693.09619626 -391.33618164 646.95605469 C-391.34090394 635.33034392 -391.34558449 623.70463315 -391.3500185 612.07892227 C-391.35029182 611.36305979 -391.35056515 610.64719731 -391.35084675 609.90964202 C-391.3592194 587.84264294 -391.36389784 565.77564552 -391.36472607 543.70864487 C-391.36476562 542.66927341 -391.36476562 542.66927341 -391.36480596 541.60890456 C-391.36534677 526.39706037 -391.36497423 511.18521633 -391.36376625 495.97337219 C-391.36334063 490.53018977 -391.36297551 485.08700736 -391.36263681 479.64382494 C-391.36255151 478.28972792 -391.36246257 476.93563091 -391.36236999 475.58153389 C-391.36092195 454.01609535 -391.36804272 432.45067043 -391.37937395 410.88523515 C-391.39102955 388.55787473 -391.39158075 366.23053855 -391.37953053 343.90317801 C-391.37289554 331.0332306 -391.37454775 318.16334715 -391.38811904 305.29340485 C-391.39635436 296.69590176 -391.3936779 288.09844665 -391.38214377 279.50094747 C-391.37587831 274.60290807 -391.37430997 269.70499359 -391.38600711 264.80696133 C-391.39656445 260.3451142 -391.39314712 255.88349754 -391.37890258 251.42166264 C-391.37618926 249.8233641 -391.37842226 248.22504687 -391.38640973 246.62676598 C-391.50973669 220.1260913 -382.86681176 197.01328696 -364.53027344 177.54345703 C-349.29089969 162.17279321 -328.59611219 154.24267988 -309.265625 145.36328125 C-302.21722175 142.12239375 -295.22973539 138.76080912 -288.25 135.375 C-278.60178237 130.69862886 -268.89519044 126.17414527 -259.13476562 121.73730469 C-254.12357548 119.45293942 -249.1572801 117.12458836 -244.25 114.625 C-236.96503252 110.91644944 -229.54031587 107.52235946 -222.11828613 104.09820557 C-212.86537039 99.82609112 -203.66689811 95.45348855 -194.5 91 C-183.84563243 85.8252209 -173.133891 80.7871335 -162.37890625 75.82421875 C-154.38122849 72.12607819 -146.43015916 68.34061261 -138.5 64.5 C-128.20895704 59.51618849 -117.8615615 54.66804615 -107.48046875 49.875 C-98.31997628 45.63610693 -89.22434336 41.27232586 -80.14013672 36.87280273 C-71.02524492 32.46870382 -61.84995956 28.20423076 -52.65844727 23.96289062 C-42.66827837 19.33989577 -32.75193186 14.57289732 -22.85400391 9.75610352 C-2.78012958 0 -2.78012958 0 0 0 Z " fill="#FEFEFE" transform="translate(1242,2045)"/>
</svg>
